<svg xmlns="http://www.w3.org/2000/svg" viewBox="0.04444444179534912 10.350000381469727 252.71180725097656 38.900001525878906" data-asc="0.87"><g fill="currentColor"><g fill="currentColor" transform="translate(0, 0)"><path d="M12.45 44.10Q11.05 44.10 9.90 42.92Q8.75 41.75 8.75 40.40Q8.75 38.85 9.80 36.77Q10.85 34.70 12.25 32.55Q14.75 28.75 17.63 25.18Q20.50 21.60 22.95 17.80Q23.50 16.95 23.85 16.27Q24.20 15.60 24.40 15.10Q24.50 14.90 24.50 14.75Q24.50 14.60 24.50 14.50Q24.50 14.05 24.18 13.88Q23.85 13.70 23.40 13.70Q22.95 13.70 22.45 13.80Q21.95 13.90 21.55 14Q18.80 14.65 15.83 16.27Q12.85 17.90 10.30 19.60Q8.10 21.05 6.03 23.05Q3.95 25.05 2.60 27.20Q1.25 29.35 1.25 31.20Q1.25 32.15 1.70 33Q1.85 33.30 1.85 33.40Q1.85 33.45 1.80 33.45Q1.70 33.45 1.55 33.33Q1.40 33.20 1.30 33.15Q0.80 32.50 0.40 31.32Q0 30.15 0.05 29.45Q0.30 26.80 2.72 24.07Q5.15 21.35 8.80 18.95Q9.40 18.55 10.70 17.80Q12 17.05 13.67 16.15Q15.35 15.25 17.13 14.47Q18.90 13.70 20.48 13.17Q22.05 12.65 23.15 12.65Q23.90 12.65 24.85 12.90Q25.80 13.15 26.50 13.70Q27.20 14.25 27.20 15.10Q27.20 16.20 26.45 17.42Q25.70 18.65 24.50 20Q22.45 22.40 20.23 24.85Q18 27.30 16.02 29.88Q14.05 32.45 12.72 35.15Q11.40 37.85 11.10 40.65Q11.10 40.80 11.08 40.95Q11.05 41.10 11.05 41.25Q11.05 42.30 11.50 42.83Q11.95 43.35 12.60 43.35Q13.55 43.35 14.72 42.52Q15.90 41.70 16.60 41.10Q18.75 39.30 20.65 37.25Q22.55 35.20 24.50 33.20Q26.65 31.10 28.98 28.70Q31.30 26.30 33.30 24.05Q33.40 23.95 33.58 23.92Q33.75 23.90 33.50 24.30Q32.35 25.75 30.65 27.75Q28.95 29.75 26.93 31.95Q24.90 34.15 22.88 36.23Q20.85 38.30 19.08 39.95Q17.30 41.60 16.10 42.50Q15.30 43.10 14.33 43.60Q13.35 44.10 12.45 44.10M24.85 49.25Q23.90 49.25 23.35 48.67Q22.80 48.10 22.55 47.30Q22.30 46.50 22.30 45.80Q22.30 43.95 23.38 41.35Q24.45 38.75 26.18 35.92Q27.90 33.10 29.88 30.38Q31.85 27.65 33.68 25.47Q35.50 23.30 36.75 22.05Q36.45 21.65 36.45 21.35Q36.45 20.70 37.05 20.13Q37.65 19.55 38.40 19.05Q39.15 18.55 39.55 18.25Q40.25 18.30 41.10 18.65Q41.95 19 41.95 19.80Q41.95 20.50 41.13 21.32Q40.30 22.15 39.85 22.55L38.35 23.85Q38.00 24.15 37.73 24.40Q37.45 24.65 37.25 24.90Q36.00 26.20 34.23 28.17Q32.45 30.15 30.60 32.50Q28.75 34.85 27.15 37.35Q25.55 39.85 24.55 42.23Q23.55 44.60 23.55 46.60Q23.55 47.40 23.88 48.08Q24.20 48.75 25.10 49Q25.25 49 25.25 49.10Q25.25 49.25 24.85 49.25ZM36.95 44.40Q35.70 44.40 34.80 43.52Q33.90 42.65 33.90 40.70Q33.90 38.20 35.20 34.60Q36.50 31 38.50 27.05Q40.05 24.10 41.80 21.40Q43.55 18.70 45.25 16.57Q46.95 14.45 48.38 13.22Q49.80 12 50.70 12Q51.55 12 51.98 12.45Q52.40 12.90 52.73 13.45Q53.05 14 53.60 14.35Q53.55 15.50 52.40 17.25Q51.25 19 49.65 21.05Q48.60 22.30 46.68 24.57Q44.75 26.85 42.85 29.25Q41.30 31.15 40.10 32.90Q38.90 34.65 38.25 35.80Q38.05 36.15 37.95 36.05Q37.85 35.95 37.95 35.75Q38.45 34.75 39.53 33.17Q40.60 31.60 41.95 29.80Q43.30 28 44.60 26.32Q45.90 24.65 46.85 23.40Q47.80 22.15 48.15 21.75Q48.90 20.80 49.60 19.92Q50.30 19.05 50.85 18.25Q51.45 17.35 51.73 16.65Q52 15.95 52 15.50Q52 14.70 51.35 14.70Q50.90 14.70 50.23 15.15Q49.55 15.60 48.70 16.60Q47.45 18.10 45.78 20.27Q44.10 22.45 42.35 25.05Q40.60 27.65 39.13 30.48Q37.65 33.30 36.73 36.13Q35.80 38.95 35.80 41.55Q35.80 42.75 36.30 43.25Q36.80 43.75 37.50 43.75Q38.25 43.75 39.08 43.33Q39.90 42.90 40.45 42.25Q41.30 41.35 42.13 40.25Q42.95 39.15 43.63 38.17Q44.30 37.20 44.60 36.70Q44.75 36.45 44.90 36.45Q45.15 36.45 44.90 36.85Q44.10 38.20 43.03 39.67Q41.95 41.15 41.10 42.20Q40.30 43.20 39.18 43.80Q38.05 44.40 36.95 44.40ZM48.95 44.15Q47.75 44.15 47.30 43.33Q46.85 42.50 47 41.55Q47.20 40.25 47.73 39.45Q48.25 38.65 49 37.70Q49.60 36.85 50.15 35.95Q50.70 35.05 50.30 34.90Q50.05 35.10 49.45 35.35Q48.85 35.60 48.20 35.60Q47.65 35.60 47.13 35.35Q46.60 35.10 46.35 34.45Q45.70 35.65 44.77 37.08Q43.85 38.50 42.93 39.80Q42 41.10 41.30 41.95Q41.10 42.15 40.93 42.10Q40.75 42.05 40.90 41.85Q42.05 40.40 43.55 38.20Q45.05 36 46.30 33.42Q47.55 30.85 47.85 28.40Q49.55 29.20 49.55 30.45Q49.55 31.40 48.75 32.38Q47.95 33.35 46.65 34.15Q47.30 35.10 48.30 35.10Q49.05 35.10 49.83 34.63Q50.60 34.15 51.05 33.55Q51.45 33.10 51.73 32.95Q52 32.80 52.20 32.80Q52.90 32.80 53.23 33.23Q53.55 33.65 53.30 34.15Q52.40 35.40 51.25 37.23Q50.10 39.05 49.20 40.65Q49.05 40.85 48.80 41.55Q48.55 42.25 48.55 42.80Q48.55 43.55 49.15 43.55Q49.85 43.55 50.75 42.73Q51.65 41.90 52.55 40.73Q53.45 39.55 54.18 38.45Q54.90 37.35 55.25 36.85Q55.50 36.40 55.65 36.40Q55.70 36.40 55.70 36.50Q55.70 36.70 55.55 36.95Q54.80 38.20 53.95 39.45Q53.10 40.70 52.25 41.85Q51.45 42.90 50.63 43.52Q49.80 44.15 48.95 44.15ZM63.95 29.05Q63.20 28.75 62.68 28.07Q62.15 27.40 62.30 26.60Q62.40 26.15 62.58 26.02Q62.75 25.90 63.60 25.85L66.25 25.40Q66.70 25.30 66.70 25.40Q66.70 25.60 66.35 25.70Q65.55 25.90 64.95 26.30Q64.35 26.70 63.95 27.40Q63.85 27.55 63.85 27.85Q63.85 28.15 63.98 28.42Q64.10 28.70 64.25 28.90Q64.40 29.10 64.28 29.10Q64.15 29.10 63.95 29.05M58.10 44.20Q56.40 44.20 55.73 43.13Q55.05 42.05 55.05 40.55Q55.05 39.40 55.38 38.20Q55.70 37 56.20 36.05Q55.75 35.85 55.90 35.70Q56.25 35.20 56.78 34.45Q57.30 33.70 57.85 32.95Q58.50 32.10 59.03 31.55Q59.55 31 60.15 31Q60.55 31 60.88 31.25Q61.20 31.50 61.55 31.75Q60.40 32.95 59.25 34.70Q58.10 36.45 57.38 38.38Q56.65 40.30 56.65 42.15Q56.65 42.95 57.03 43.27Q57.40 43.60 57.95 43.60Q59.10 43.60 60.00 42.80Q60.95 41.95 62.23 40.33Q63.50 38.70 64.65 36.90Q64.95 36.50 65.13 36.45Q65.30 36.40 65.15 36.65Q64.75 37.45 63.93 38.67Q63.10 39.90 62.20 41.10Q61.30 42.30 60.65 42.95Q60.00 43.60 59.33 43.90Q58.65 44.20 58.10 44.20ZM66.90 44.25Q65.35 44.25 64.28 43.10Q63.20 41.95 63.20 40Q63.20 38.55 63.85 36.90Q64.60 35.15 65.83 33.58Q67.05 32 68.50 30.98Q69.95 29.95 71.35 29.95Q72.30 29.95 73.20 30.48Q74.10 31 73.85 32.15Q73.80 32.30 73.68 32.35Q73.55 32.40 73.55 32.35Q73.20 31.35 72.05 31.35Q71.40 31.35 70.70 31.80Q69.30 32.85 68.08 34.27Q66.85 35.70 66 37.15Q65.15 38.60 64.85 39.80Q64.75 40.30 64.68 40.67Q64.60 41.05 64.60 41.45Q64.60 42.70 65.25 43.23Q65.90 43.75 66.80 43.75Q68.25 43.75 69.50 42.85Q70.60 42 71.55 40.90Q72.50 39.80 73.40 38.45Q73.55 38.20 73.70 38.20Q73.75 38.20 73.75 38.30Q73.75 38.45 73.55 38.80Q72.80 39.90 71.85 41.17Q70.90 42.45 69.75 43.25Q69.05 43.75 68.33 44Q67.60 44.25 66.90 44.25ZM81.45 47.40Q80.10 47.40 79.68 46.58Q79.25 45.75 79.25 45Q79.25 43.80 79.90 42.10Q80.55 40.40 81.43 38.60Q82.30 36.80 83.05 35.45Q83.65 34.40 83.65 33.80Q83.65 33.40 83.35 33.40Q82.95 33.40 81.98 34.25Q81 35.10 79.95 36.27Q78.90 37.45 78.15 38.45Q77.40 39.45 76.73 40.70Q76.05 41.95 75.50 42.80Q75.25 43.25 74.90 43.25Q74.55 43.25 74.20 42.85Q73.85 42.45 73.85 41.40Q73.85 40.95 74.28 39.33Q74.70 37.70 75.45 35.45Q76.20 33.20 77.18 30.80Q78.15 28.40 79.25 26.30Q80.70 23.65 82.40 21.13Q84.10 18.60 85.80 16.55Q87.50 14.50 89 13.30Q90.50 12.10 91.45 12.10Q92.30 12.10 92.55 12.47Q92.80 12.85 92.98 13.32Q93.15 13.80 93.70 14.15Q93.50 15.40 92.48 17.30Q91.45 19.20 89.50 21.30Q86.80 24.20 84.05 27.63Q81.30 31.05 79.10 34.35Q78.90 34.60 78.73 34.60Q78.55 34.60 78.75 34.30Q80.45 31.30 82.58 28.60Q84.70 25.90 86.93 23.22Q89.15 20.55 91.10 17.75Q91.70 16.90 91.95 16.32Q92.20 15.75 92.20 15.40Q92.20 14.85 91.65 14.85Q90.50 14.85 88.90 16.55Q87.30 18.30 85.43 20.75Q83.55 23.20 82.10 25.40Q81.30 26.60 80.28 28.48Q79.25 30.35 78.28 32.38Q77.30 34.40 76.68 36.10Q76.05 37.80 76.05 38.65Q76.05 39.10 76.40 39.10Q76.60 39.10 76.80 38.95Q77 38.80 77.20 38.60Q78.40 37.40 79.78 35.95Q81.15 34.50 82.55 33.02Q83.95 31.55 85.10 30.40Q85.65 30.60 86.08 30.60Q86.50 30.60 87.05 30.85Q87.55 31.05 87.55 31.65Q87.55 32 87.35 32.50Q87.15 33 86.85 33.55Q85.75 35.40 84.45 37.13Q83.15 38.85 82.08 40.67Q81 42.50 80.50 44.70Q80.45 44.95 80.43 45.25Q80.40 45.55 80.40 45.80Q80.40 47.10 81.15 47.10Q81.60 47.10 82.10 46.65L83.50 45.40Q83.10 46.30 82.63 46.85Q82.15 47.40 81.45 47.40ZM101.85 46.75Q101.70 46.75 101.70 46.33Q101.70 45.90 101.70 45.85Q101.70 45.20 101.98 44.73Q102.25 44.25 102.55 43.95Q103.45 43.10 105.00 42.52Q106.55 41.95 109.15 41.45Q107.50 41.25 106.80 40.20Q106.10 39.15 106.10 37.80Q106.10 36.15 106.98 33.88Q107.85 31.60 109.30 29.05Q110.75 26.50 112.58 23.97Q114.40 21.45 116.28 19.22Q118.15 17 119.85 15.45Q118.30 15.50 115.15 15.52Q112.00 15.55 106.70 16.50Q100.80 17.50 98.30 18.92Q95.80 20.35 95.80 22.60Q95.80 22.85 95.98 22.97Q96.15 23.10 96.25 23.35Q96.40 23.50 96.40 23.60Q96.40 23.75 96.25 23.75Q96.10 23.75 95.85 23.60Q95.05 23.05 94.38 22.17Q93.70 21.30 93.70 20.65Q93.70 19.40 95.58 18.22Q97.45 17.05 100.48 16.15Q103.50 15.25 106.95 14.85Q108.75 14.60 111.53 14.42Q114.30 14.25 117.55 14.25Q118.40 14.25 119.23 14.25Q120.05 14.25 120.90 14.30Q120.65 14.05 120.65 13.65Q120.65 12.90 121.55 12.15Q122.10 11.60 122.75 11.23Q123.40 10.85 124.00 10.35Q124.40 10.55 124.80 10.57Q125.20 10.60 125.60 10.70Q126.30 11 126.30 11.50Q126.30 11.85 125.90 12.40Q125.55 12.90 124.98 13.42Q124.40 13.95 123.80 14.50Q126.55 14.80 128.88 15.25Q131.20 15.70 132.40 16.40Q133.25 16.90 133.53 17.35Q133.80 17.80 133.85 18.10Q133.95 18.35 133.93 18.72Q133.90 19.10 134.15 19.20Q134.75 20.25 134.75 21.25Q134.75 22.75 133.60 24.05Q132.45 25.35 130.65 26.43Q128.85 27.50 126.75 28.32Q124.65 29.15 122.75 29.73Q120.85 30.30 119.55 30.55Q118.70 30.75 117.10 30.95Q115.50 31.15 114.15 31.50Q113.95 31.55 113.65 31.63Q113.35 31.70 113.05 31.80Q112.80 31.85 112.60 31.92Q112.40 32 112.30 32Q111.80 32 111.48 31.98Q111.15 31.95 111.10 31.80Q111.05 31.70 111.40 31.65Q111.75 31.60 112.55 31.45Q114.70 31.05 117.63 30.25Q120.55 29.45 123.58 28.17Q126.60 26.90 129.13 25.20Q131.65 23.50 132.90 21.35Q133.15 20.90 133.35 20.35Q133.55 19.80 133.55 19.30Q133.55 17.85 131.98 17.07Q130.40 16.30 127.95 15.97Q125.50 15.65 122.85 15.60Q121.35 16.90 119.35 19Q117.35 21.10 115.28 23.65Q113.20 26.20 111.43 28.90Q109.65 31.60 108.55 34.10Q107.45 36.60 107.45 38.55Q107.45 39.70 107.70 40.23Q107.95 40.75 108.55 40.95Q109.15 41.15 110.10 41.35Q111.95 41.05 113.05 41.02Q114.15 41 115.30 41Q115.40 41 115.38 41.17Q115.35 41.35 115.25 41.35Q113.55 41.35 111.15 41.92Q108.75 42.50 106.30 43.67Q103.85 44.85 101.95 46.70Q101.90 46.75 101.85 46.75ZM130.05 44.25Q128.60 44.25 127.58 43.15Q126.55 42.05 126.55 40.15Q126.55 39.45 126.73 38.63Q126.90 37.80 127.25 36.90Q128.00 35.15 129.33 33.55Q130.65 31.95 132.20 30.90Q133.75 29.85 135.15 29.85Q135.30 29.85 135.50 29.98Q135.70 30.10 135.80 30.20L136.05 30.45Q136.65 31.05 137.23 31.15Q137.80 31.25 138.15 31.75Q138.75 32.70 138.75 34.05Q138.75 35.90 137.63 38.08Q136.50 40.25 134.60 42Q133.65 42.85 132.50 43.55Q131.35 44.25 130.05 44.25M130.40 43.70Q131.60 43.70 132.85 42.88Q134.10 42.05 135.18 40.70Q136.25 39.35 137.03 37.85Q137.80 36.35 138.00 35Q138.05 34.75 138.08 34.48Q138.10 34.20 138.10 34Q138.10 32.65 137.45 32.02Q136.80 31.40 135.90 31.40Q134.95 31.40 133.95 32Q133.00 32.55 131.55 34.27Q130.10 36 128.95 37.85Q127.90 39.50 127.90 41.05Q127.90 42.15 128.53 42.92Q129.15 43.70 130.40 43.70ZM154.45 47.40Q153.10 47.40 152.65 46.58Q152.20 45.75 152.20 44.95Q152.20 43.65 152.73 42.23Q153.25 40.80 153.90 39.40Q155.05 37.05 155.70 35.85Q156.35 34.65 156.63 34.05Q156.90 33.45 156.90 32.95Q156.90 32.45 156.65 32.30Q156.40 32.15 156.15 32.15Q155.80 32.15 155.35 32.42Q154.90 32.70 154.50 33.10Q153.65 34 152.65 35.38Q151.65 36.75 150.73 38.23Q149.80 39.70 149.13 40.90Q148.45 42.10 148.20 42.60Q147.75 43.50 147.15 43.50Q146.45 43.50 145.70 42.50Q146.05 41.70 146.50 40.67Q146.95 39.65 147.40 38.55Q147.95 37.25 148.43 35.70Q148.90 34.15 148.90 33.10Q148.90 32.05 148.35 32.05Q147.90 32.05 147.15 32.80Q146.45 33.45 145.43 34.77Q144.40 36.10 143.35 37.70Q142.30 39.30 141.53 40.77Q140.75 42.25 140.55 43.20Q140.45 43.45 140.10 43.45Q139.65 43.45 139.15 43.05Q138.65 42.65 138.70 41.75Q138.70 41.60 139.10 40.63Q139.50 39.65 140.08 38.35Q140.65 37.05 141.20 35.80Q141.75 34.55 142.10 33.80Q141.75 33.50 141.73 33.35Q141.70 33.20 141.75 33.05Q141.90 32.85 142.20 32.27Q142.50 31.70 142.80 31.13Q143.10 30.55 143.15 30.35Q143.35 30.25 143.98 30.02Q144.60 29.80 145.20 29.80L145.40 29.80Q146.00 29.80 146.00 30.15Q146.00 30.50 145.65 31.05Q145.50 31.30 145.00 32.23Q144.50 33.15 143.85 34.35Q143.20 35.55 142.68 36.63Q142.15 37.70 141.90 38.30Q141.65 38.85 141.75 39.45Q142.75 37.80 144.15 35.77Q145.55 33.75 147.10 32.15Q147.70 31.45 148.40 31.45Q149.80 31.45 150.43 32.10Q151.05 32.75 151.05 33.55Q151.05 34.50 150.50 35.75Q150.30 36.25 149.80 37.52Q149.30 38.80 148.80 40Q149.55 38.95 150.68 37.35Q151.80 35.75 153.03 34.17Q154.25 32.60 155.25 31.55Q156.25 30.50 156.70 30.50Q157.80 30.50 158.68 31.27Q159.55 32.05 159.55 32.60Q159.55 33.40 158.80 34.70Q158.05 36 156.30 38.80Q155.30 40.40 154.33 42.38Q153.35 44.35 153.35 45.80Q153.35 47.10 154.10 47.10Q154.55 47.10 155.05 46.65Q155.40 46.35 155.75 46Q156.10 45.65 156.45 45.40Q156.05 46.30 155.60 46.85Q155.15 47.40 154.45 47.40ZM175.35 47.40Q174.00 47.40 173.55 46.58Q173.10 45.75 173.10 44.95Q173.10 43.65 173.63 42.23Q174.15 40.80 174.80 39.40Q175.95 37.05 176.60 35.85Q177.25 34.65 177.53 34.05Q177.80 33.45 177.80 32.95Q177.80 32.45 177.55 32.30Q177.30 32.15 177.05 32.15Q176.70 32.15 176.25 32.42Q175.80 32.70 175.40 33.10Q174.55 34 173.55 35.38Q172.55 36.75 171.63 38.23Q170.70 39.70 170.03 40.90Q169.35 42.10 169.10 42.60Q168.65 43.50 168.05 43.50Q167.35 43.50 166.60 42.50Q166.95 41.70 167.40 40.67Q167.85 39.65 168.30 38.55Q168.85 37.25 169.33 35.70Q169.80 34.15 169.80 33.10Q169.80 32.05 169.25 32.05Q168.80 32.05 168.05 32.80Q167.35 33.45 166.33 34.77Q165.30 36.10 164.25 37.70Q163.20 39.30 162.43 40.77Q161.65 42.25 161.45 43.20Q161.35 43.45 161.00 43.45Q160.55 43.45 160.05 43.05Q159.55 42.65 159.60 41.75Q159.60 41.60 160.00 40.63Q160.40 39.65 160.98 38.35Q161.55 37.05 162.10 35.80Q162.65 34.55 163.00 33.80Q162.65 33.50 162.63 33.35Q162.60 33.20 162.65 33.05Q162.80 32.85 163.10 32.27Q163.40 31.70 163.70 31.13Q164.00 30.55 164.05 30.35Q164.25 30.25 164.88 30.02Q165.50 29.80 166.10 29.80L166.30 29.80Q166.90 29.80 166.90 30.15Q166.90 30.50 166.55 31.05Q166.40 31.30 165.90 32.23Q165.40 33.15 164.75 34.35Q164.10 35.55 163.58 36.63Q163.05 37.70 162.80 38.30Q162.55 38.85 162.65 39.45Q163.65 37.80 165.05 35.77Q166.45 33.75 168.00 32.15Q168.60 31.45 169.30 31.45Q170.70 31.45 171.33 32.10Q171.95 32.75 171.95 33.55Q171.95 34.50 171.40 35.75Q171.20 36.25 170.70 37.52Q170.20 38.80 169.70 40Q170.45 38.95 171.58 37.35Q172.70 35.75 173.93 34.17Q175.15 32.60 176.15 31.55Q177.15 30.50 177.60 30.50Q178.70 30.50 179.58 31.27Q180.45 32.05 180.45 32.60Q180.45 33.40 179.70 34.70Q178.95 36 177.20 38.80Q176.20 40.40 175.23 42.38Q174.25 44.35 174.25 45.80Q174.25 47.10 175.00 47.10Q175.45 47.10 175.95 46.65Q176.30 46.35 176.65 46Q177.00 45.65 177.35 45.40Q176.95 46.30 176.50 46.85Q176.05 47.40 175.35 47.40ZM185.05 44.15Q183.70 44.15 182.58 43.17Q181.45 42.20 181.45 40.30Q181.45 38.80 182.25 37.05Q183.05 35.30 184.33 33.70Q185.60 32.10 187.05 31.05Q188.50 30 189.75 29.95Q189.95 30.15 190.23 30.25Q190.50 30.35 190.75 30.45L192.05 30.75Q193.15 31.05 193.15 32.15Q193.15 32.80 192.73 33.55Q192.30 34.30 191.45 34.85Q191.00 35.15 190.48 35.45Q189.95 35.75 189.40 36.05L187.15 37.25Q186.10 37.80 185.30 38.42Q184.50 39.05 184.15 39.75Q184.15 39.75 184.03 39.77Q183.90 39.80 183.95 39.60Q184.30 38.75 185.33 37.88Q186.35 37 187.40 36.35Q187.90 35.95 188.43 35.65Q188.95 35.35 189.45 35Q189.95 34.65 190.43 34.27Q190.90 33.90 191.25 33.55Q191.65 33.15 191.83 32.75Q192.00 32.35 192.00 32.05Q192.00 31.10 190.90 31.10Q190.20 31.10 189.30 31.70Q188.20 32.45 187.20 33.48Q186.20 34.50 185.30 35.70Q184.35 37 183.63 38.70Q182.90 40.40 182.90 41.55Q182.90 42.70 183.58 43.17Q184.25 43.65 185.15 43.65Q186.40 43.65 187.55 43Q188.40 42.50 189.15 41.73Q189.90 40.95 190.40 40.35Q190.80 39.85 191.33 39.15Q191.85 38.45 192.05 38.10Q192.15 38 192.20 38.10Q192.25 38.20 192.25 38.25Q192.05 38.60 191.58 39.38Q191.10 40.15 190.20 41.30Q189.15 42.65 188.00 43.40Q186.85 44.15 185.05 44.15ZM197.30 44.15Q196.10 44.15 195.65 43.33Q195.20 42.50 195.35 41.55Q195.55 40.25 196.08 39.45Q196.60 38.65 197.35 37.70Q197.95 36.85 198.50 35.95Q199.05 35.05 198.65 34.90Q198.40 35.10 197.80 35.35Q197.20 35.60 196.55 35.60Q196.00 35.60 195.48 35.35Q194.95 35.10 194.70 34.45Q194.05 35.65 193.13 37.08Q192.20 38.50 191.28 39.80Q190.35 41.10 189.65 41.95Q189.45 42.15 189.28 42.10Q189.10 42.05 189.25 41.85Q190.40 40.40 191.90 38.20Q193.40 36 194.65 33.42Q195.90 30.85 196.20 28.40Q197.90 29.20 197.90 30.45Q197.90 31.40 197.10 32.38Q196.30 33.35 195.00 34.15Q195.65 35.10 196.65 35.10Q197.40 35.10 198.18 34.63Q198.95 34.15 199.40 33.55Q199.80 33.10 200.08 32.95Q200.35 32.80 200.55 32.80Q201.25 32.80 201.58 33.23Q201.90 33.65 201.65 34.15Q200.75 35.40 199.60 37.23Q198.45 39.05 197.55 40.65Q197.40 40.85 197.15 41.55Q196.90 42.25 196.90 42.80Q196.90 43.55 197.50 43.55Q198.20 43.55 199.10 42.73Q200.00 41.90 200.90 40.73Q201.80 39.55 202.53 38.45Q203.25 37.35 203.60 36.85Q203.85 36.40 204.00 36.40Q204.05 36.40 204.05 36.50Q204.05 36.70 203.90 36.95Q203.15 38.20 202.30 39.45Q201.45 40.70 200.60 41.85Q199.80 42.90 198.98 43.52Q198.15 44.15 197.30 44.15ZM206.30 44.15Q204.95 44.15 203.83 43.17Q202.70 42.20 202.70 40.30Q202.70 38.80 203.50 37.05Q204.30 35.30 205.58 33.70Q206.85 32.10 208.30 31.05Q209.75 30 211.00 29.95Q211.20 30.15 211.48 30.25Q211.75 30.35 212.00 30.45L213.30 30.75Q214.40 31.05 214.40 32.15Q214.40 32.80 213.98 33.55Q213.55 34.30 212.70 34.85Q212.25 35.15 211.73 35.45Q211.20 35.75 210.65 36.05L208.40 37.25Q207.35 37.80 206.55 38.42Q205.75 39.05 205.40 39.75Q205.40 39.75 205.28 39.77Q205.15 39.80 205.20 39.60Q205.55 38.75 206.58 37.88Q207.60 37 208.65 36.35Q209.15 35.95 209.68 35.65Q210.20 35.35 210.70 35Q211.20 34.65 211.68 34.27Q212.15 33.90 212.50 33.55Q212.90 33.15 213.08 32.75Q213.25 32.35 213.25 32.05Q213.25 31.10 212.15 31.10Q211.45 31.10 210.55 31.70Q209.45 32.45 208.45 33.48Q207.45 34.50 206.55 35.70Q205.60 37 204.88 38.70Q204.15 40.40 204.15 41.55Q204.15 42.70 204.83 43.17Q205.50 43.65 206.40 43.65Q207.65 43.65 208.80 43Q209.65 42.50 210.40 41.73Q211.15 40.95 211.65 40.35Q212.05 39.85 212.58 39.15Q213.10 38.45 213.30 38.10Q213.40 38 213.45 38.10Q213.50 38.20 213.50 38.25Q213.30 38.60 212.83 39.38Q212.35 40.15 211.45 41.30Q210.40 42.65 209.25 43.40Q208.10 44.15 206.30 44.15ZM221.60 44.15Q220.30 44.15 219.78 43.38Q219.25 42.60 219.25 41.55Q219.25 40.35 219.63 39.13Q220.00 37.90 220.48 36.88Q220.95 35.85 221.25 35.30Q222.10 33.70 222.10 33.20Q222.10 32.65 221.60 32.85Q221.20 33 220.50 33.70Q219.80 34.40 219.05 35.30Q218.30 36.20 217.73 36.95Q217.15 37.70 217.00 37.95Q215.60 39.95 215.05 41.25Q214.50 42.55 214.25 43.15Q214.15 43.40 213.70 43.40Q213.25 43.40 212.80 43.02Q212.35 42.65 212.35 41.90Q212.35 41.50 212.80 40.48Q213.25 39.45 213.90 38.05Q214.50 36.70 215.10 35.33Q215.70 33.95 216.05 33.15Q215.70 32.85 215.70 32.70Q215.70 32.55 215.75 32.45Q215.85 32.20 216.15 31.63Q216.45 31.05 216.75 30.48Q217.05 29.90 217.15 29.75Q217.30 29.65 217.93 29.40Q218.55 29.15 219.15 29.15L219.35 29.15Q219.95 29.15 219.95 29.50Q219.95 29.85 219.60 30.40Q219.45 30.65 218.90 31.67Q218.35 32.70 217.65 34Q216.95 35.30 216.38 36.48Q215.80 37.65 215.55 38.25Q215.40 38.70 215.43 39.13Q215.45 39.55 215.65 39.25Q217.05 37.15 218.25 35.65Q219.45 34.15 220.65 32.85Q221.85 31.55 223.30 30.15Q223.80 30.35 224.35 30.35Q224.90 30.35 225.30 30.65Q225.50 30.80 225.50 31.15Q225.50 31.85 224.68 33.23Q223.85 34.60 222.85 36.30Q222.10 37.60 221.35 39.30Q220.60 41 220.60 42.25Q220.60 42.90 220.83 43.33Q221.05 43.75 221.55 43.75Q222.00 43.75 222.55 43.40Q222.95 43.15 224.30 41.73Q225.65 40.30 227.25 37.85Q227.40 37.70 227.45 37.70Q227.55 37.70 227.55 37.80Q227.55 37.90 227.40 38.20Q225.75 41 224.13 42.58Q222.50 44.15 221.60 44.15ZM235.40 43.75Q233.90 43.75 232.95 41.90Q232.40 40.85 232.05 39.63Q231.70 38.40 231.50 37.30Q231.30 36.20 231.20 35.60Q228.15 40.80 228.15 43.35Q228.15 43.55 227.95 43.55Q227.80 43.55 227.50 43.35Q227.15 43.15 226.85 42.83Q226.55 42.50 226.55 42.20Q226.70 39.45 227.78 36.05Q228.85 32.65 230.45 29.13Q232.05 25.60 233.85 22.57Q235.65 19.55 237.30 17.55Q240.55 13.70 243.43 12.07Q246.30 10.45 249.40 10.45Q250.15 10.45 251.05 10.55Q251.95 10.65 252.60 11.05Q252.85 11.25 252.70 11.35Q252.55 11.45 252.45 11.40Q251.95 11.15 251.28 11.05Q250.60 10.95 249.90 10.95Q247.60 10.95 245.08 12.92Q242.55 14.90 239.95 17.85Q237.45 20.70 235.35 24.07Q233.25 27.45 231.60 30.82Q229.95 34.20 228.85 37.15Q228.55 37.90 228.55 38.40Q228.55 38.75 228.70 38.75Q228.95 38.75 229.45 37.75Q229.80 37.05 230.38 36.05Q230.95 35.05 231.45 34.25Q233.00 31.75 234.58 30.05Q236.15 28.35 237.45 28Q237.85 28.30 238.38 28.48Q238.90 28.65 239.35 28.95Q239.85 29.25 239.85 29.90Q239.85 31.05 238.60 32.60Q237.50 34 235.98 34.73Q234.45 35.45 233.15 35.70Q233.25 36.60 233.53 38.02Q233.80 39.45 234.15 40.60Q234.55 41.70 235.05 42.15Q235.55 42.60 236.05 42.60Q236.75 42.60 237.43 42.08Q238.10 41.55 238.65 40.85Q239.15 40.25 239.60 39.63Q240.05 39 240.40 38.45L241.40 36.95Q241.50 36.80 241.60 36.80Q241.90 36.80 241.65 37.25Q241.10 38.10 240.08 39.67Q239.05 41.25 237.95 42.40Q236.75 43.75 235.40 43.75M232.00 35.35Q232.55 35.35 233.40 34.92Q234.25 34.50 235.03 33.95Q235.80 33.40 236.05 33.15Q236.60 32.60 236.95 31.95Q237.30 31.30 237.30 30.65Q237.30 30.55 237.30 30.40Q237.30 30.25 237.25 30.15Q237.10 29.60 236.55 29.60Q235.90 29.60 235.05 30.38Q234.20 31.15 233.40 32.20Q232.60 33.25 232.15 34Q232.00 34.30 231.83 34.58Q231.65 34.85 231.65 35.10Q231.65 35.35 232.00 35.35ZM244.00 44.15Q242.65 44.15 241.53 43.17Q240.40 42.20 240.40 40.30Q240.40 38.80 241.20 37.05Q242.00 35.30 243.28 33.70Q244.55 32.10 246.00 31.05Q247.45 30 248.70 29.95Q248.90 30.15 249.18 30.25Q249.45 30.35 249.70 30.45L251.00 30.75Q252.10 31.05 252.10 32.15Q252.10 32.80 251.68 33.55Q251.25 34.30 250.40 34.85Q249.95 35.15 249.43 35.45Q248.90 35.75 248.35 36.05L246.10 37.25Q245.05 37.80 244.25 38.42Q243.45 39.05 243.10 39.75Q243.10 39.75 242.98 39.77Q242.85 39.80 242.90 39.60Q243.25 38.75 244.28 37.88Q245.30 37 246.35 36.35Q246.85 35.95 247.38 35.65Q247.90 35.35 248.40 35Q248.90 34.65 249.38 34.27Q249.85 33.90 250.20 33.55Q250.60 33.15 250.78 32.75Q250.95 32.35 250.95 32.05Q250.95 31.10 249.85 31.10Q249.15 31.10 248.25 31.70Q247.15 32.45 246.15 33.48Q245.15 34.50 244.25 35.70Q243.30 37 242.58 38.70Q241.85 40.40 241.85 41.55Q241.85 42.70 242.53 43.17Q243.20 43.65 244.10 43.65Q245.35 43.65 246.50 43Q247.35 42.50 248.10 41.73Q248.85 40.95 249.35 40.35Q249.75 39.85 250.28 39.15Q250.80 38.45 251.00 38.10Q251.10 38 251.15 38.10Q251.20 38.20 251.20 38.25Q251.00 38.60 250.53 39.38Q250.05 40.15 249.15 41.30Q248.10 42.65 246.95 43.40Q245.80 44.15 244.00 44.15Z"/></g><g fill="currentColor" transform="translate(0, 66.5)"><path d=""/></g></g></svg>